<?xml version="1.0" standalone="no"?>
<!DOCTYPE svg PUBLIC "-//W3C//DTD SVG 20010904//EN"
 "http://www.w3.org/TR/2001/REC-SVG-20010904/DTD/svg10.dtd">
<svg version="1.0" xmlns="http://www.w3.org/2000/svg"
 width="512.000000pt" height="512.000000pt" viewBox="0 0 512.000000 512.000000"
 preserveAspectRatio="xMidYMid meet">

<g transform="translate(0.000000,512.000000) scale(0.100000,-0.100000)"
fill="#000000" stroke="none">
<path d="M2315 5109 c-390 -36 -799 -171 -1119 -371 -316 -197 -617 -498 -814
-814 -511 -820 -507 -1923 10 -2743 197 -313 502 -614 813 -804 432 -263 934
-393 1445 -374 568 22 1062 200 1510 545 197 152 446 432 583 657 331 545 449
1199 332 1841 -93 507 -331 960 -695 1325 -199 200 -381 334 -625 460 -434
225 -944 324 -1440 278z m450 -399 c751 -70 1390 -503 1725 -1171 237 -471
292 -1028 155 -1553 -82 -313 -263 -648 -473 -876 l-48 -53 -67 100 c-254 383
-652 657 -1098 757 -63 14 -148 28 -189 32 -84 8 -137 22 -85 23 17 1 66 10
110 20 358 86 647 375 737 737 30 119 32 331 4 449 -87 380 -381 674 -761 761
-116 27 -330 26 -445 -3 -183 -47 -346 -138 -475 -268 -391 -390 -391 -1020 0
-1410 85 -86 168 -144 289 -201 89 -42 230 -83 291 -85 29 -1 30 -1 5 -9 -14
-4 -71 -13 -126 -19 -497 -57 -983 -367 -1269 -810 l-48 -75 -49 53 c-297 324
-495 782 -538 1246 -59 640 157 1262 595 1714 453 468 1097 702 1760 641z
m-61 -1170 c113 -29 190 -73 276 -160 87 -86 131 -163 160 -276 36 -141 17
-295 -52 -427 -44 -82 -165 -203 -245 -245 -133 -70 -286 -88 -427 -52 -113
29 -190 73 -276 160 -87 86 -131 163 -160 276 -36 141 -18 294 52 427 42 81
164 203 245 245 133 70 286 88 427 52z m141 -2010 c384 -82 723 -327 925 -668
23 -40 41 -74 39 -76 -18 -17 -191 -117 -277 -160 -604 -302 -1347 -300 -1952
4 -81 40 -252 140 -269 155 -7 7 68 131 127 210 184 247 476 444 771 520 194
50 443 56 636 15z"/>
</g>
</svg>
